/* XPM */
static char *result[] = {
/* columns rows colors chars-per-pixel */
"64 64 240 2 ",
"   c black",
".  c #070A06",
"X  c #001A00",
"o  c #051A06",
"O  c #0D0811",
"+  c #260100",
"@  c #391819",
"#  c #3C0701",
"$  c #002400",
"%  c #09290A",
"&  c #1A251C",
"*  c #143716",
"=  c #083206",
"-  c #231726",
";  c #2F0A28",
":  c #0A3534",
">  c #272629",
",  c #253727",
"<  c #372C3B",
"1  c #373838",
"2  c #2B2F33",
"3  c #4D0000",
"4  c #430300",
"5  c #570000",
"6  c #581907",
"7  c #4A1D1C",
"8  c #670100",
"9  c #750000",
"0  c #631C07",
"q  c #552119",
"w  c #6B2314",
"e  c #732512",
"r  c #7A2918",
"t  c #6E2109",
"y  c #541A29",
"u  c #502E2A",
"i  c #68373B",
"p  c #6F3330",
"a  c #004700",
"s  c #005B00",
"d  c #025401",
"f  c #154B1A",
"g  c #006C00",
"h  c #006400",
"j  c #007B00",
"k  c #007301",
"l  c #176F17",
"z  c #104E23",
"x  c #28462A",
"c  c #265928",
"v  c #3A443D",
"b  c #374A39",
"n  c #355938",
"m  c #007A36",
"M  c #2B6A2D",
"N  c #266229",
"B  c #2F7232",
"V  c #337936",
"C  c #317230",
"Z  c #373644",
"A  c #423C44",
"S  c #5A3B45",
"D  c #673D44",
"F  c #593F64",
"G  c #3D4842",
"H  c #31494A",
"J  c #3E7542",
"K  c #434E44",
"L  c #4C4B4D",
"P  c #474647",
"I  c #4B544D",
"U  c #4D5A4D",
"Y  c #455546",
"T  c #4D5553",
"R  c #545756",
"E  c #534850",
"W  c #694847",
"Q  c #6F4D4F",
"!  c #476149",
"~  c #477548",
"^  c #4F6850",
"/  c #586458",
"(  c #4F7150",
")  c #61625F",
"_  c #545667",
"`  c #5B4D62",
"'  c #685B6C",
"]  c #5A6773",
"[  c #636264",
"{  c #676B67",
"}  c #6A6675",
"|  c #746778",
" . c #7C7C7B",
".. c #747975",
"X. c #746D6D",
"o. c #900A00",
"O. c #B70000",
"+. c #AA1101",
"@. c #852C15",
"#. c #912E0D",
"$. c #B32E0B",
"%. c #8E392B",
"&. c #B23E22",
"*. c #C80000",
"=. c #D40101",
"-. c #D70A0B",
";. c #D80E12",
":. c #D21315",
">. c #C83800",
",. c #D13C00",
"<. c #D82D00",
"1. c #D92829",
"2. c #B84A36",
"3. c #A14B3C",
"4. c #88403F",
"5. c #D54101",
"6. c #CE4418",
"7. c #DB4A1C",
"8. c #CA4109",
"9. c #EA4B01",
"0. c #E64904",
"q. c #F54C01",
"w. c #FA4B01",
"e. c #F64702",
"r. c #F85008",
"t. c #E44C1D",
"y. c #EA4E18",
"u. c #F1521E",
"i. c #FE561C",
"p. c #ED5326",
"a. c #F35321",
"s. c #FE5722",
"d. c #FF5923",
"f. c #FE5A2B",
"g. c #F8562B",
"h. c #FF5E33",
"j. c #E75635",
"k. c #FF6034",
"l. c #865B60",
"z. c #FF6942",
"x. c #C16352",
"c. c #0F881A",
"v. c #108231",
"b. c #278229",
"n. c #249629",
"m. c #36893A",
"M. c #2B9834",
"N. c #37993B",
"B. c #35A53B",
"V. c #39A43E",
"C. c #36A63B",
"Z. c #2CA436",
"A. c #3E9E42",
"S. c #3E9141",
"D. c #3D8F40",
"F. c #3DA542",
"G. c #3DA841",
"H. c #448845",
"J. c #439C46",
"K. c #439447",
"L. c #539053",
"P. c #42A646",
"I. c #42A946",
"U. c #46A54A",
"Y. c #46AB4A",
"T. c #4AAD4E",
"R. c #4AA64E",
"E. c #47B24C",
"W. c #4CAF50",
"Q. c #4DA650",
"!. c #4EB152",
"~. c #51B255",
"^. c #56B55A",
"/. c #59B75C",
"(. c #50AD52",
"). c #7D807D",
"_. c #5DBA60",
"`. c #60B653",
"'. c #63C166",
"]. c #7B6584",
"[. c #7B6A84",
"{. c #7C7484",
"}. c #697189",
"|. c #846E8D",
" X c #83748B",
".X c #8B7A95",
"XX c #92799C",
"oX c #967FA0",
"OX c #788687",
"+X c #7E809B",
"@X c #878887",
"#X c #96859A",
"$X c #9A9598",
"%X c #8C8893",
"&X c #9D8CA9",
"*X c #9887A4",
"=X c #9B91AC",
"-X c #9790AD",
";X c #A396A9",
":X c #AC99B6",
">X c #AD9BB9",
",X c #A796B4",
"<X c #B09DBC",
"1X c #A48EAE",
"2X c #9FA4A0",
"3X c #A4A2A4",
"4X c #A9A8A9",
"5X c #B2A4BA",
"6X c #B3B3B3",
"7X c #BBBABB",
"8X c #ADB1B3",
"9X c #A89997",
"0X c #B5A4C4",
"qX c #BAA5C6",
"wX c #B6A7C8",
"eX c #BBA6C8",
"rX c #B6A8C8",
"tX c #000000",
"yX c #BCA8C7",
"uX c #AEA1C0",
"iX c #000000",
"pX c #000000",
"aX c #000000",
"sX c #CAB4D6",
"dX c #CCB8D9",
"fX c #BAC4C4",
"gX c #C8C8C9",
"hX c #DCDCDC",
"jX c #D5D4D5",
"kX c #CED4D4",
"lX c #E4E3E4",
"zX c #EBECEC",
"xX c #E8E8E8",
"cX c #F5F4F5",
"vX c #F6F9F9",
"bX c #FEFEFE",
"nX c #F8F7F8",
"mX c #EFF1F1",
"MX c #DEE2E2",
"NX c None",
/* pixels */
"iXiXiXiXiXiXiXpXiXiXiXiXiXiXiXpXiXiXiXiXiXiXpXiXiXiXiXtXpXsXiXqXqXqXiXpXpXiXpXpXiXpXpXiXiXiXiXiXiXiXiXiXiXiXiXiXiXiXiXiXiXiXpXiX",
"iXiXiXiXiXiXiXiXiXiXiXiXiXiXiXiXiXiXiXiXiXpXiXiXiXiXiXaXtXtX:Xb G , *XtXtXiXqXtXtX5XiXiXiXiXiXiXiXiXiXiXiXiXiXiXiXiXiXiXiXiXiXiX",
"iXiXiXpXiXiXiXiXiXiXiXiXiXiXiXiXaXpXiXiXiXiXiXiXpXtXaXpX X& ! P.U.Y.H.,  .0XK G I x {.iXpXiXiXiXiXiXiXiXiXiXiXiXiXiXiXiXiXiXiXiX",
"iXiXiXiXpXiXiXiXiXiXiXpXiXiXiXiXtXpXiXiXiXiXiXiXpXpXtX| b.T.I.~.I.P.A.M.m.Y P.M.M.Z.b.' tXiXiXiXiXiXiXiXiXiXiXiXiXiXiXiXpXiXiXiX",
"iXiXiXpXiXiXiXiXiXiXpXiXpXiXiXiXpXtXaXiXaXaXaXtXaX0X_ M.W.(.~.P.U I U T J n.x I ^ L ~ M.R 0XaXtXiXiXiXiXiXiXiXiXiXiXiXpXiXiXiXiX",
"iXiXiXiXiXiXiXiXiXiXiXiXiXiXiXiXpXaXpXiXtXtXpXaX>XG A.!.~.Y.M.{ mXnXcXbXhXb   lXnXbXkXN n.* >XsXiXiXiXiXiXiXiXiXiXiXiXiXiXiXiXiX",
"pXiXiXiXiXiXiXiXiXiXiXiXiXiXiXiXpXtXaXtXpXtXsX1Xx I.!.!.~.b.@XnXbXbXbXbXnXhX{ zXbXbXbXlXI K ;XaXiXiXiXiXiXiXiXiXiXiXiXiXiXiXiXiX",
"iXiXiXiXiXiXiXpXiXiXiXiXiXiXpXiXpXpXtXaXaXpXdX1X= !.!./.h 3XbXbXbXbXbXgX.  .zXbXbX4X$XbXnXvX@XXXsXtXiXiXiXiXiXiXiXiXiXiXiXiXiXpX",
"iXiXiXpXpXiXiXiXiXpXiXiXiXiXiXiXiXpXpXtXtXqXpX*Xa T.T._.d 4XbXbXbXbX6X      [ mX8X    ).bXbX@X XdXpXaXpXpXpXpXtXpXiXiXiXiXiXiXiX",
"iXiXiXiXiXiXiXiXiXiXiXiXiXiXiXpXpXpXuXZ 2 : S y f T.W._.s 3XbXbXbXbX3X  1   > xX2X    X.bXcX .|.aXqXeXeXeXpXpXpXiXiXiXiXiXiXiXiX",
"iXiXiXiXiXiXiXiXiXiXiXpXiXpXiXtXsX:X> 4 3   $.<.z G.T._.s ;XbXbXbXbX3X  1 . O mX4X    ..cX..X b G v G G - &XpXtXpXiXiXiXpXiXiXiX",
"iXiXiXiXiXiXiXiXiXiXiXiXiXpXpXtXsX,X4 p.g.g.&.J W.W.T./.s 4XbXbXbXbX6X      / xX;X  x , U P.U.U.P.P.U.Y.d 2 & | iXiXiXiXiXiXiXiX",
"pXiXiXiXiXiXiXpXiXiXiXiXiXiXiXtXsX,X3 s.f.+.m W.W.W.T._.s 3XbXbXbXbXbX7X  l.xXOX  H.T.U.G.!.!.!.!.!.!.!.R.E.b.  ` tXaXpXiXiXiXiX",
"iXiXiXiXiXiXiXiXiXiXiXiXiXpXpXtXsX,X4 u.f.o.m /.W.W.T._.d ;XbXcXcXbXbXbXvXmX{ S.Y.T.!.~.~.T.T.!.W.R.W.W.!.W.(.D.  L <XaXiXiXiXiX",
"iXiXiXiXiXiXiXiXiXiXiXiXiXiXpXtXsX:X  4 t.$.v._.!.~.T.B X b / Y U MXnXnXMXJ A.!.~.T.W.T.W.!.T.!.m.N W.W.!.B   V W.P.n 1XaXtXiXiX",
"iXiXpXiXpXiXiXiXiXiXiXiXiXiXpXaXsX1X  z u L.G.F.F.F.~.(.W.P.B.V.F.~ T I J G.!.W.T.E.!.T.!.T.T.!.!.S.* R.!.c M W.W.!.R.d *XsXiXiX",
"iXiXiXiXiXiXiXiXpXpXpXpXpXpXrXtX*XO * N.M.C.K.T U U A.C.E.^.^.~.~.I.V.V.I.~.T.W.T.!.T.!.W.W.E.T.~.J.* T.!.M m.!.T.!.^.s .XaXpXpX",
"iXiXiXiXpXiXiXiXtXpXpXtXpXeX} @ u     U ) * 7XbXcXcX).1 L.C.I.~.T.~.~.~.~.T.!.W.!.T.!.T.W.W.W.!.!.W.R.!.!.R.R.T.W.E.T.^.l |.aXiX",
"iXiXiXiXiXiXiXiXpXpXpXpXtX`   5.8.  } cXnXcXbXbXbXbXnXbX6X& ( G.W.!.W.W.W.W.W.W.T.!.W.!.W.!.!.T.W.W.!.E.T.!.W.!.W.W.T./.g ].sXpX",
"iXpXiXiXiXpXiXiXpXtXpXpXtXZ ,.z.O.OXbXbXbXbXbXbXbXbXbXbXnXbXlXY Q.T.W.W.W.W.W.W.!.T.W.W.W.W.T.!.!.!.T.!.!.W.T.W.W.W.T.^.g [.aXiX",
"iXiXiXiXiXiXiXiXpXpXpXpXeXZ ,.z.O.OXbXbXbXbXbXbXbXbXbXbXbXbXbXzXK M.^.R.W.W.W.W.T.!.T.!.!.T.!.T.T.!.T.!.T.!.W.W.T.!.T.^.g ].sXiX",
"iXiXiXiXiXiXiXpXtXpXpXpXtXT 5.z.O.OXbXbXbXbXbXbXbXbXbXbXbXbXbXnX{ N.~.T.W.E.W.!.!.T.W.E.T.!.T.!.!.T.!.T.!.T.W.W.!.!.T./.g ].aXiX",
"pXiXiXiXiXiXiXiXpXpXpXpXpXeX_ ,.*.OXbXbXbXbXbXbXbXbXbXbXbXbXbXbXnX .j _.T.T.W.W.!.W.W.W.!.T.T.!.T.!.T.!.E.W.W.!.T.!.R./.g ].aXpX",
"iXiXpXiXiXiXiXiXpXtXpXtXpXaX} u + OXbXbXbXbXbXbXbXbXbXbXbXbXbXbXbX%Xj /.T.!.W.W.W.W.W.W.T.!.!.T.!.T.!.T.W.W.W.W.!.T.W.^.l |.aXiX",
"iXiXiXiXiXpXiXiXiXiXiXiXiXiXyXiX*XO { vXbXbXbXbXbXbXbXbXbXbXbXbXbXbX;Xk /.(.T.W.W.W.W.W.W.W.!.W.!.T.!.T.W.W.W.W.T.E.^.s .XpXpXpX",
"iXiXpXiXiXiXiXiXiXiXiXpXiXiXiXiXpX*XE mXbXbXbXbXbXbXbXbXbXbXbXbXbXbX$Xd /.~.!.T.W.W.W.W.W.W.T.!.T.!.T.!.W.W.W.W.!.!.W.d *XdXtXpX",
"iXiXiXiXiXiXiXiXiXiXiXiXiXiXiXsX-X%.u.Q MXbXbXbXbXbXbXbXbXbXbXbXcX$Xv 1 s G.W.!.W.!.!.W.W.T.W.T.W.W.W.W.W.W.!.W.W.F.n 1XaXtXpXpX",
"iXiXiXiXiXiXiXpXiXiXiXiXiXiXtXdX%X9 f.r.%.gXbXbXbXbXbXbXbXbXbXcX .hXbX7X1 U $ J.W.R.W.!.!.!.!.!.!.!.!.!.!.R.~.S.  L >XaXpXpXtXpX",
"iXiXiXiXiXiXiXiXiXpXiXiXiXiXtXsX*X  5 r.s.+.fXvXnXbXbXbXbXbXbXbXcXbXbXnXcXxXL   o   C W.Q.W.Q.W.W.W.Q.W.~.M   X ` eXpXtXpXpXpXpX",
"iXpXiXiXiXiXiXiXiXiXiXiXiXiXpXtXaX,X2 S j.w.2.:  .nXvXvXbXbXbXbXbXbXbXbXbXbXnX@XA P   $ $ $ $ X $ $ $ X X 2 O | tXpXpXpXpXtXtXpX",
"iXiXiXiXiXpXpXiXiXiXiXiXpXiXpXpXpXrX0XuX` 3 u     P P O gXbXcXcXbXbXnXcXcXnXcXzXcX4X  Z Z < < < < < Z < - &XtXtXaXpXpXpXpXpXpXpX",
"iXiXiXiXiXtXiXiXiXiXiXiXtXaXtXiX*X- S S O NXNXNXL 1 1   , R K { nXbX6XR [ A [ [ X.1 [.iXeXeXtXeXeXyXqXtXtXpXaXpXtXpXtXpXpXtXpXpX",
"pXpXpXaXpXaXtXpXpXpXpXpXpXtX' @ < 8 =.*.8 2   3XnXnXbX%Xh ~.c.Z cXbXcXbXkXA :XqXqXqXtXpXpXpXpXpXpXpXpXpXpXiXtXiXiXiXiXiXiXpXiXiX",
"pXpXtXtXeXtXaXaXpXtXpXpXwXE   +.=.:.;.;.1.8 8XbXbXbXbX%Xj '.N.L nXbXbXbXbXzX| <XaXpXpXiXiXiXiXiXiXiXiXiXiXiXpXiXiXiXiXiXiXiXiXiX",
"pXpX Xo v R rXeXiXpXaX:X< + O.;.=.=.=.-.1.9 fXbXbXcX| M.^.!.M.L vXbXbXbXbXbXcXX.*XdXtXiXiXiXiXiXiXiXiXpXiXiXiXiXiXiXpXiXiXpXiXiX",
"pXaX].h W.U.b 1 &XpX&XH + :.-.=.=.=.;.;.5 gXbXbXxXU X N.!.!.S.T cXbXbXbXbXbXbX{ *XdXtXiXpXpXpXiXiXiXiXiXiXiXiXiXiXiXiXiXiXiXiXiX",
"pXaX].k /.W.F.F.(   6XlX+ =.;.=.=.-.1.=.q jXbXjXb V.W.M V ~.M.u cXbXbXbXbXbXbXX.*XdXtXpXqXqXqXtXpXiXiXiXiXiXiXiXiXiXiXiXiXiXiXiX",
"pXaX].g ^.W.^.^.a 6XbXzXP *.=.;.;.=.*.W lXbXbXkX. W.!.!.M B P.[ nXbXbXbXbXbXbX/ *XdXeX>Xv G & *XpXtXiXiXiXiXiXiXiXiXiXiXiXiXiXiX",
"aXaX].g /.W.W.~.d 7XbXbXmXX.O.=.*.O.X.cXbXbXgX  x W.T.!.H.   .bXbXnXcXcXcXvXbX .&X*X= G P.P.c   .XsXpXiXiXiXiXiXiXiXiXpXiXiXpXiX",
"tXsX|.l ~.W.W.W.^.k 3XbXbXvX$X7 u %XvXbXbXbX6X  c W.W.T.^.j  .bXvX%X, ) b ..cXbX$Xg !.N.c R.J   {.iXtXpXiXiXiXiXiXpXiXiXiXiXiXiX",
"aXtXpX.Xh W.W.W.!.!.c.@XcXnXnXvXnXbXbXcXnX4Xb.K.* T.W.!.!.T.K.K U J.V.V.G.n.R cX9Xk L.c R.W.!.B ; b R rXaXaXaXtXiXiXiXiXiXiXpXiX",
"aXtXdXXXd !.^.W.T.~.T.J.I Y hXbXcXbXzX{ Y H.E.K.f T.W.T.~.m.N F.G.W.~.~./.V.x xX$Xk L.f W.Y.W.M N T.A.G :XaXtXaXiXiXiXiXiXiXiXiX",
"pXtXsX*Xc W.W.W.W.T.!.W.V.V.~ L U I ^ N.C.Y.~.T.J.* U.!.!.T.R.~.~.W.W.W.T.T.Q.( ; m.!.J.o & * D.E.W.~.Y.c 1XsXtXiXiXiXiXiXiXiXiX",
"pXpXtXaX&Xa W.W.E.W.T.W.~.~.U.V.F.V.P.~.~.~.Y.!.R.& R.!.T.!.!.E.W.W.W.W.!.!.!.G.I.m.* * % % m.U.T.W.!.Y.= *XsXpXiXiXpXiXpXiXiXiX",
"iXiXtXsX:X, U.~.!.~.~.T.Y.T.T.~.(.!.~.Y.T.~.^.~.N.  N.!.~.T.T.!.W.W.W.W.W.W.!.!.!.T.V % W.T.V X V !.U.G - 1XsXtXiXiXiXiXiXiXiXiX",
"iXiXiXiXpXuXK A.T.J.F.~.~.~.~.!.~.~.!.~.~.I.Z.K.I L I S.E.~.T.T.W.W.W.W.W.W.!.!.W.D.* c !.!.U.W.m.  R 0XtXtXaXtXiXiXiXpXiXiXiXiX",
"iXpXiXiXiXaXeX_ $ P L.C.P.V.V.P.V.P.G.P.P.L.& 2XnXnXnX$Xj ~.~.~.W.W.W.E.W.W.E.f   B F.!.W.~.~.!.B ' tXpXpXiXiXiXiXiXiXiXiXiXiXpX",
"iXiXiXiXiXiXaXaXF 6XjXK Y U U U I Y Y K 1 gXbXnXbXbXbXbX8Xh G.P.~.~.~.~.!.(.Q.b ; < J Y.F.P.W.l {.aXaXtXiXiXiXiXpXiXiXiXiXiXiXiX",
"iXiXiXiXiXiXiXiXsX.X3XcXvXcXnXcXnXnXbXvXbXbXbXbXbXcXcXbXbXgXY ! A.V.Z.Y.K.X : >XiXpX&X, G G , *XsXaXtXaXpXpXpXpXpXpXpXpXpXpXpXpX",
"iXiXiXiXpXiXiXiXtXpX#X@XvXbXbXbXbXcXcXvXnXbXnXvXxXQ W jXbXzXcXzX{ Y { G % 4 7 >XtXtXpXtXeXeX0XtXaXtXaXtXpXtXtXpXpXtXpXtXtXpXpXtX",
"iXiXiXpXiXiXiXiXtXpXaX,XT zXnXbXgXu Q W @ hXgX  4.9.e.3.R p $XvXnXzXcX6Xo.s.g.4.+ #XpXpXpXpXpXpXtXpXpXpXpXpXpXpXpXtXpXpXpXpXpXpX",
"iXiXiXiXiXiXiXiXpXpXpX>X4 W Q L 2.q.q.0.5 : : +.r.f.h.r.9.w.<.] cX9X2 x.i.s.s.r.i.$.}.pXpXpXpXtXpXpXaXtXpXpXtXaXpXpXpXpXpXpXtXpX",
"iXiXiXiXiXpXiXiXtXsX,Xi p.q.w.q.r.f.f.w q   $.f.f.f.i.f.f.f.y.+ P 7.e.e.d.s.s.d.h.+.| pXiXiXiXiXpXpXpXpXpXtXpXtXpXtXpXpXtXpXpXtX",
"iXiXiXiXiXiXpXiXpXiXaX>X6 a.f.f.f.s.u.6 7.f.s.s.i.d.s.s.s.s.f.p.# y.h.s.s.s.s.s.s.f.8._ pXiXiXiXpXtXpXtXpXpXpXpXpXpXpXtXpXpXpXpX",
"iXiXiXiXiXiXiXiXiXiXsX>X# 0 6 6.d.s.s.s.i.d.s.s.d.s.s.d.d.s.d.s.q t.s.s.d.s.s.s.a.k.,.Z pXiXpXiXpXtXpXpXpXpXpXtXpXpXpXpXpXpXpXpX",
"pXiXiXiXiXiXiXiXtXsX-Xr u.a.a.i.s.s.s.d.s.s.s.s.d.s.s.s.s.s.i.a.6 7.s.s.s.s.s.s.s.g.8._ pXiXiXiXpXpXpXpXpXtXpXpXpXtXpXpXtXpXpXtX",
"pXtXpXpXtXpXpXtXtXdX*X8 d.f.s.s.s.s.s.s.s.s.s.s.s.s.s.s.s.s.s.s.# 7.d.s.d.d.d.i.k.$.} iXiXiXiXiXpXpXtXpXpXpXpXpXpXpXpXpXpXpXpXpX",
"pXpXpXtXpXpXpXpXiXsX-X%.a.a.s.s.s.s.d.s.d.s.s.s.s.s.s.s.d.s.a.t.t p.d.d.d.i.u.u.h.O.}.pXiXiXiXiXtXpXpXpXpXpXtXpXtXpXpXtXtXpXpXtX",
"pXpXpXpXpXpXpXpXiXiXiX1Xe e 7.s.u.a.a.a.a.s.d.s.s.d.u.u.s.6.6 r t.u.u.u.i.t.t w q   {.sXtXpXiXiXpXpXpXpXtXpXtXpXpXtXpXpXpXpXpXpX",
"pXtXpXpXtXpXpXtXtXsX=XQ 9.q.#.q e e r e 6 6.s.a.a.a.#.0 6 &.i.9.@.w e e w @.g.u.@.{.pXpXpXpXiXiXpXpXtXpXpXpXpXpXpXpXpXpXpXpXtXpX",
"pXtXpXpXpXtXpXpXpXpXpX:Xi i 6.q.0.9.9.9.s.&.q r w r p.f.y.q.p.i 7.9.9.9.9.y.q.%.&XaXtXtXpXpXpXpXtXpXpXtXpXpXpXpXpXtXpXpXtXpXpXtX",
"pXpXpXpXpXpXpXpXpXtXpXaXrXrXl.q D i D i t.w.9.9.9.9.r.w.2.@ | 5XQ p i i i i S >XsXpXpXpXpXtXpXpXpXpXpXpXpXtXtXpXpXpXpXtXpXpXpXpX",
"pXtXtXpXtXpXtXpXpXtXtXpXaXsXtXrXtXwXwXwX' w W i i i S 7 #XtXyXiXqXrXrXrXrXqXrXiXpXtXtXpXpXtXpXtXpXpXpXpXpXpXpXpXpXpXpXpXpXpXpXpX",
"pXpXpXpXpXpXpXpXpXpXpXaXtXtXaXsXpXpXpXpXwXwXrXrXtXrXrXqXiXaXaXiXaXaXaXaXaXaXaXiXpXpXpXpXpXpXpXpXtXpXpXtXpXpXtXpXpXtXpXpXtXpXpXtX"
};
