/* XPM */
static char *result[] = {
/* columns rows colors chars-per-pixel */
"64 64 15 1 ",
"  c #040302",
". c #1E1006",
"X c #1B1C20",
"o c #232428",
"O c #3E2E26",
"+ c #531A03",
"@ c #652207",
"# c #48372F",
"$ c gray37",
"% c gray47",
"& c #9A695B",
"* c #B68752",
"= c #BB8F82",
"- c #B1B1B1",
"; c #000000",
/* pixels */
";;;;;;;;;;;;;;;;;;;;;;;;;;;;;;;;;;;;;;;;;    ;;;;;;;;;;;;;;;;;;;",
";;;;;;;;;;;;;;;;;;;;;;;;;;;;;;;;;;;;;;;;       ;;;;;;;;;;;;;;;;;",
";;;;;;;;;;;;;;;;;;;;;;;;;;;;;;;;;;;;;;;         ;;;;;;;;;;;;;;;;",
";;;;;;;;;;;;;;;;;;;;;;;;;;;;;;;;;;;;;;;          ;;;;;;;;;;;;;;;",
";;;;;;;;;;;;;;;;;;;;;;;;;;;;;;;;;;;;;;           ;;;;;;;;;;;;;;;",
";;;;;;;;;;;;;;;;;;;;;;;;;;;;;;;;;;;;;;==         ;;;;;;;;;;;;;;;",
";;;;;;;;;;;;;;;;;;;;;;;;;;;;;;;;;;;;;;= =  ==& & ;;;;;;;;;;;;;;;",
";;;;;;;;;;;;;;;;;;;;;;;;;;;;;;;;;;;;;;  ======&;;;;;;;;;;;;;;;;;",
";;;;;;;;;;;;;;;;;;;;;;;;;;;;;*@@@@@@@     ===&;;;;;;;;;;;;;;;;;;",
";;;;;;;;;;;;;;;;;;;;;;;;;;;;X*@@@@@@o      &&&;;;;;;;;;;;;;;;;;;",
";;;;;;;;;;;;;;;;;;;;;;;;;;oXX*@@@@@++o     &&;;;;;;;;;;;;;;;;;;;",
";;;;;;;;;;;;;;;;;;;;;====oooX**@@+++++o     o;;;;;;;;;;;;;;;;;;;",
";;;;;;;;;;;;;;;;;;;=====oooooX**@@+++++o    o;;;;;;;;;;;;;;;;;;;",
";;;;;;;;;;;;;;;;;;====&oooooooX**@++++++    +;;;;;;;;;;;;;;;;;;;",
";;;;;;;;;;;;;;;;;===&&oooooooooX**@+++++o  @@;;;;;;;;;;;;;;;;;;;",
";;;;;;;;;;;;;;;;===&&ooooooooooXX**@++++++@@;;;;;;;;;;;;;;;;;;;;",
";;;;;;;;;;;;;;;o&=&&ooooooooo&==XX**@+++++@@;;;;;;;;;;;;;;;;;;;;",
";;;;;;;;;;;;;;ooX&&oooooooooo&===XX**+++++@;;;;;;;;;;;;;;;;;;;;;",
";;;;;;;;;;;;;oooXX;oooooooooo&====XX***@++@;;;;;;;;;;;;;;;;;;;;;",
";;;;;;;;;;;;oooXXXooooooooooo&&&===XXX***@@;;;;;;;;;;;;;;;;;;;;;",
";;;;;;;;;;;=ooXXX;oooooooooooX&&&===oXXX***;;;;;;;;;;;;;;;;;;;;;",
";;;;;;;;;;==oXXX;ooooooooooooXX&&&===oo;;;;;;;;;;;;;;;;;;;;;;;;;",
";;;;;;;;;;=&XXX;;oooooooooooooXX&&&===o;;;;;;;;;;;;;;;;;;;;;;;;;",
";;;;;;;;;=&&&&&=oooooooooooooooXX&&&===;;;;;;;;;;;;;;;;;;;;;;;;;",
";;;;;;;;;===&;&&ooooooooooooooXXXX&&&===;;;;;;;;;;;;;;;;;;;;;;;;",
";;;;;;;;;;=;=;;.oXXXXooooooooXXXXXX&&&==&;;;;;;;;;;;;;;;;;;;;;;;",
";;;;;;;;;;;;;;;...XXXXXXXXXXXXXXX;;;&&&=&ooo;;;;;;;;;;;;;;;;;;;;",
";;;;;;;;;;;;;;.......XXXXXXXXXXX;;;;;&&&&Xooo;;;;;;;;;;;;;;;;;;;",
";;;;;;;;;;;;;;...........XXXXXX;;;;;;;XXXXXooooo==;;;;;;;;;;;;;;",
";;;;;;;;;;;;;;.............$$X;;;;;;;;XXXXXooooo===---;;;;;;;;;;",
";;;;;;;;;;;;;;............$..$;;;;;;;;;;XXXXooo====%%--------;;;",
";;;;;;;;;;;;;;O..........$...$;;;;;;;;;;;;XXXX...&&%%%%%%%%%%%-;",
";;;;;;;;;;;;;;OOXX......$...$;;;;;;;;;;;;;;;;X..&&;;;%%-;;;;;;;;",
";;;;;;;;;;;;;;OOXXXXX...$..$$;;;;;;;;;;;;;;;;;;;;;;;;;;%%;;;;;;;",
";;;;;;;;;;;;;;OOXXXXXXXX$$$X;;;;;;;;;;;;;;;;;;;;;;;;;;;;;;;;;;;;",
";;;;;;;;;;;;;;OOXXXXXoooXXXoo;;;;;;;;;;;;;;;;;;;;;;;;;;;;;;;;;;;",
";;;;;;;;;;;;;#OOXXXXXooooooooo;;;;;;;;;;;;;;;;;;;;;;;;;;;;;;;;;;",
";;;;;;;;;;;;;#OOXXXXXXooooooooo;;;;;;;;;;;;;;;;;;;;;;;;;;;;;;;;;",
";;;;;;;;;;;;;##OXXXXXXoooooooooo;;;;;;;;;;;;;;;;;;;;;;;;;;;;;;;;",
";;;;;;;;;;;;;##OOXXXXXXoooooooooo;;;;;;;;;;;;;;;;;;;;;;;;;;;;;;;",
";;;;;;;;;;;;;##OOXXXXXXXoooooooooo;;;;;;;;;;;;;;;;;;;;;;;;;;;;;;",
";;;;;;;;;;;;;###OXXXXXXXooooooooooo;;;;;;;;;;;;;;;;;;;;;;;;;;;;;",
";;;;;;;;;;;;####OXXXXXXXXoooooooooo;;;;;;;;;;;;;;;;;;;;;;;;;;;;;",
";;;;;;;;;;;;####OXXXXXXXXXXXXXXXXXO;;;;;;;;;;;;;;;;;;;;;;;;;;;;;",
";;;;;;;;;;;####OOXXXXXXXXXXXOOOOOOO#;;;;;;;;;;;;;;;;;;;;;;;;;;;;",
";;;;;;;;;;;####OOOXXXXXXXX;OOOOO#####;;;;;;;;;;;;;;;;;;;;;;;;;;;",
";;;;;;;;;;;####OO;XXXX;;;;;;OOOOO####;;;;;;;;;;;;;;;;;;;;;;;;;;;",
";;;;;;;;;;#####OO;;;;;;;;;;;;OOOOO###;;;;;;;;;;;;;;;;;;;;;;;;;;;",
";;;;;;;;;;#####OO;;;;;;;;;;;;;OOOO####;;;;;;;;;;;;;;;;;;;;;;;;;;",
";;;;;;;;;;#####O;;;;;;;;;;;;;;;OOO####;;;;;;;;;;;;;;;;;;;;;;;;;;",
";;;;;;;;;#####OO;;;;;;;;;;;;;;;;OOO####;;;;;;;;;;;;;;;;;;;;;;;;;",
";;;;;;;;;#####OO;;;;;;;;;;;;;;;;OOO####;;;;;;;;;;;;;;;;;;;;;;;;;",
";;;;;;;;;####OOO;;;;;;;;;;;;;;;;;OOO###;;;;;;;;;;;;;;;;;;;;;;;;;",
";;;;;;;;#####OOO;;;;;;;;;;;;;;;;;OOO####;;;;;;;;;;;;;;;;;;;;;;;;",
";;;;;;;;####OOO;;;;;;;;;;;;;;;;;;;OOO###;;;;;;;;;;;;;;;;;;;;;;;;",
";;;;;;;;####OOO;;;;;;;;;;;;;;;;;;;OOO####;;;;;;;;;;;;;;;;;;;;;;;",
";;;;;;;;###OOO;;;;;;;;;;;;;;;;;;;;OOOO###;;;;;;;;;;;;;;;;;;;;;;;",
";;;;;;;oo##OOO;;;;;;;;;;;;;;;;;;;;;XXXo###;;;;;;;;;;;;;;;;;;;;;;",
";;;;;;;oooXOO;;;;;;;;;;;;;;;;;;;;;;XXXoooo;;;;;;;;;;;;;;;;;;;;;;",
";;;;;;;oooXOO;;;;;;;;;;;;;;;;;;;;;;;XXXooo;;;;;;;;;;;;;;;;;;;;;;",
";;;;;;oooXXX;;;;;;;;;;;;;;;;;;;;;;;;XXXXXoo;;;;;;;;;;;;;;;;;;;;;",
";;;;;;oooXXX;;;;;;;;;;;;;;;;;;;;;;;;;XXXXoo;;;;;;;;;;;;;;;;;;;;;",
";;;;;;ooXXXX;;;;;;;;;;;;;;;;;;;;;;;;;XXXXXoo;;;;;;;;;;;;;;;;;;;;",
";;;;;oooXXXX;;;;;;;;;;;;;;;;;;;;;;;;;;XXXXXoooo;;;;;;;;;;;;;;;;;"
};
