/* XPM */
static char *result[] = {
/* columns rows colors chars-per-pixel */
"64 64 23 1 ",
"  c #0F1A1B",
". c #141412",
"X c #191C1E",
"o c #133315",
"O c #162527",
"+ c #1D2E30",
"@ c #24282C",
"# c #242A36",
"$ c #2B3037",
"% c #243A3C",
"& c #164E19",
"* c #085B11",
"= c #265F2A",
"- c #1D6621",
"; c #343C45",
": c #394554",
"> c #3B535E",
", c #465669",
"< c #169D1B",
"1 c #1E8F25",
"2 c #38E116",
"3 c #5C8EA5",
"4 c None",
/* pixels */
"4444444444444444@:::::;;;;;;;;;;44444444444444444444444444444444",
"4444444444444444@;;$;$$$$$$$$$$$44444444444444444444444444444444",
"4444444444444444X;;$;$$$$$$$$$$$44444444444444444444444444444444",
"4444444444444444XXXXXXXXXXXXXXXX44444444444444444444444444444444",
"4444444444444444$$@$:,,,,,,:$$$$44444444444444444444444444444444",
"4444444444444444$$@:,,,,,,,,:$$$44444444444444444444444444444444",
"4444444444444444$@:,,:#22#:,,:@$44444444444444444444444444444444",
"4444444444444444@:::<2#22#2<:::@44444444444444444444444444444444",
"4444444444444444:::#22#22#22#:::44444444444444444444444444444444",
"4444444444444444::<#<<#<<#<<#<::44444444444444444444444444444444",
"4444444444444444X*<#<<><<><<#<*X44444444444444444444444444444444",
"4444444444444444X**#**>**>**#**X44444444444444444444444444444444",
"4444444444444444X**>**3**3**>**X44444444444444444444444444444444",
"4444444444444444:oo>oo3oo3oo>oo:44444444444444444444444444444444",
"4444444444444444..o3.o3.o3.o3.o.44444444444444444444444444444444",
"4444444444444444...3..3..3..3...44444444444444444444444444444444",
"                oooooooooooooooo                4444444444444444",
"OOOOOOO O+O+OOOo&&&o&o&o&&&&&&&o&OO O O OOOOOOO 4444444444444444",
"OOOOOOO O+O+OO&o&&&o&o&o&&&&&&&o&&O O O OOOOOOO 4444444444444444",
"+++++++ +++++--o-------o-------o---++++ +++++++ 4444444444444444",
"+++++++O++++---&-------&-------&----+++O+++++++O4444444444444444",
"+++++++O+++----&-------&-------&-----++O+++++++O4444444444444444",
"+++++++O++-----&-------&-------&------+O+++++++O4444444444444444",
"%%%%%%%O%111111&-------&1111111&-------O%%%%%%%O4444444444444444",
"OOOOOOOO&&&&&&&&&&&&&&&&&&&&&&&&&&&&&&&&OOOOOOOO4444444444444444",
"1111111-1111111&-------&1111111--------&1111111+4444444444444444",
"======1-1111111&1111111&1111111-1111111&11=====+4444444444444444",
"=====11-1111111-1111111-1111111-1111111-111====+4444444444444444",
"====111-1111111-1111111-1111111-1111111-1111===+4444444444444444",
"===1111-1111111-1111111-1111111-1111111-11111==+4444444444444444",
"===1111-1111111-1111111-1111111-1111111-11111==+4444444444444444",
"===1111-1111111-1111111-1111111-1111111-1111111+4444444444444444",
"++++---------------------------------&&&&&&&OOOO4444444444444444",
"1111111-1111111-1111111-1111111-1111111&1111111O4444444444444444",
"=====11-1111111-1111111-1111111-1111111&111====O4444444444444444",
"=====11-1111111-1111111-1111111-1111111-111====O4444444444444444",
"======1-1111111-1111111-1111111-1111111-11=====O4444444444444444",
"======1-1111111-1111111-1111111-1111111-1======O4444444444444444",
"======1-1111111-1111111-1111111-1111111-1======O4444444444444444",
"======1+1111111-1111111-1111111-1111111&1======O4444444444444444",
"+++++++++---------------------------&&&OOOO+++OO4444444444444444",
"======1+1111111-1111111-1111111-1111111O1======O4444444444444444",
"%%%%%%=+===1111-1111111-1111111-11111==O=%%%%%%O4444444444444444",
"%%%%%%=+====111-1111111-1111111-1111===O=%%%%%%+4444444444444444",
"%%%%%%=+======1-1111111-1111111-11=====O=%%%%%%+4444444444444444",
"%%%%%%=+======1-1111111-1111111-1======O=%%%%%%+4444444444444444",
"%%%%%%=+======1+1111111-1111111+1======+=%%%%%%+4444444444444444",
"%%%%%%=+======1+1===111-1111===+1======+=%%%%%%+4444444444444444",
"+++++++++++++++++++++++++++++++++++++OOOOOOOOOOO4444444444444444",
"%%%%%%%+======1+1111111+1111111+1======O%%%%%%%O4444444444444444",
"%%%%%%%+%%%%%%=+=======+=======+=%%%%%%O%%%%%%%O4444444444444444",
"%%%%%%%+%%%%%%=+=======+=======+=%%%%%%+%%%%%%%O4444444444444444",
"%%%%%%%+%%%%%%=+=======+=======+=%%%%%%+%%%%%%%O4444444444444444",
"%%%%%%%+%%%%%%=+=======+=======+=%%%%%%+%%%%%%%O4444444444444444",
"%%%%%%%+%%%%%%=+=======+=======+=%%%%%%+%%%%%%%O4444444444444444",
"%%%%%%%+%%%%%%=+=======+=======+=%%%%%%O%%%%%%%O4444444444444444",
"++++++++++++++++++++++++++++++++++++OOOOOOO+++OO4444444444444444",
"%%%%%%%+%%%%%%%+=======+=======+%%%%%%%O%%%%%%%O4444444444444444",
"%%%%%%%+%%%%%%%+%%%%%%%+%%%%%%%+%%%%%%%O%%%%%%%O4444444444444444",
"%%%%%%%+%%%%%%%+%%%%%%%+%%%%%%%+%%%%%%%O%%%%%%%+4444444444444444",
"%%%%%%%+%%%%%%%+%%%%%%%+%%%%%%%+%%%%%%%O%%%%%%%+4444444444444444",
"%%%%%%%+%%%%%%%+%%%%%%%+%%%%%%%+%%%%%%%O%%%%%%%+4444444444444444",
"%%%%%%%+%%%%%%%+%%%%%%%+%%%%%%%+%%%%%%%+%%%%%%%+4444444444444444",
"%%%%%%%+%%%%%%%+%%%%%%%+%%%%%%%+%%%%%%%+%%%%%%%+4444444444444444"
};
