/* XPM */
static char *result[] = {
/* columns rows colors chars-per-pixel */
"64 64 210 2 ",
"   c #093C1B",
".  c #3C2A1B",
"X  c #322519",
"o  c #2E3E1C",
"O  c #343E1D",
"+  c #3C3C1E",
"@  c #422E1D",
"#  c #45331F",
"$  c #48321F",
"%  c #413A1F",
"&  c #402E20",
"*  c #463720",
"=  c #4C3421",
"-  c #433C20",
";  c #4F3F24",
":  c #513623",
">  c #543A25",
",  c #593E27",
"<  c #5A3F28",
"1  c #563E29",
"2  c #653B2F",
"3  c #04461A",
"4  c #0D471A",
"5  c #024A1A",
"6  c #0C4C1B",
"7  c #004714",
"8  c #13461A",
"9  c #1B451B",
"0  c #134B1B",
"q  c #1A4B1B",
"w  c #03541C",
"e  c #0D541C",
"r  c #025C1C",
"t  c #0D5B1C",
"y  c #12551C",
"u  c #1D541B",
"i  c #125B1C",
"p  c #1B5B1C",
"a  c #23441B",
"s  c #2C421C",
"d  c #234B1D",
"f  c #2B4B1D",
"g  c #34421E",
"h  c #3B431F",
"j  c #354B1F",
"k  c #3D4C1F",
"l  c #23531D",
"z  c #2A541E",
"x  c #235D1B",
"c  c #2B5A1E",
"v  c #34551E",
"b  c #3C521E",
"n  c #02641C",
"m  c #0C641C",
"M  c #016A1B",
"N  c #0B691D",
"B  c #006B14",
"V  c #11651C",
"C  c #1C631C",
"Z  c #11691C",
"A  c #1C6B1B",
"S  c #06711E",
"D  c #1E721A",
"F  c #2E6A17",
"G  c #23641A",
"H  c #236C1A",
"J  c #2A6D1A",
"K  c #2D6518",
"L  c #366B1B",
"P  c #267416",
"I  c #2D7317",
"U  c #26721A",
"Y  c #2B7318",
"T  c #2D7B1A",
"R  c #247816",
"E  c #327516",
"W  c #3C7616",
"Q  c #357A16",
"!  c #3C7D13",
"~  c #347D19",
"^  c #37711B",
"/  c #2F4F20",
"(  c #3E4721",
")  c #3D4926",
"_  c #355923",
"`  c #136F20",
"'  c #44451F",
"]  c #465B1C",
"[  c #436C1B",
"{  c #48681D",
"}  c #407A16",
"|  c #50701F",
" . c #414320",
".. c #474923",
"X. c #5D412A",
"o. c #584B2B",
"O. c #495926",
"+. c #5A5C27",
"@. c #5C5629",
"#. c #505F24",
"$. c #64462D",
"%. c #66482E",
"&. c #69492F",
"*. c #6B4B30",
"=. c #724E33",
"-. c #745135",
";. c #795537",
":. c #7C5739",
">. c #7E593B",
",. c #635C2A",
"<. c #566124",
"1. c #5A6826",
"2. c #4D7421",
"3. c #567524",
"4. c #486523",
"5. c #6B7E2D",
"6. c #607A28",
"7. c #7C6D38",
"8. c #776637",
"9. c #757334",
"0. c #777C34",
"q. c #7C7537",
"w. c #845D3D",
"e. c #85633D",
"r. c #89603F",
"t. c #826E3B",
"y. c #837639",
"u. c #8C5B41",
"i. c #8B6241",
"p. c #926743",
"a. c #956945",
"s. c #996C47",
"d. c #9E6F49",
"f. c #9E704A",
"g. c #A16E45",
"h. c #A5744D",
"j. c #A9764D",
"k. c #AB794F",
"l. c #AD7A50",
"z. c #B27D51",
"x. c #2F810C",
"c. c #33820C",
"v. c #39850D",
"b. c #3C8C0B",
"n. c #3E8113",
"m. c #3D8B17",
"M. c #3B8418",
"N. c #3F9114",
"B. c #2B8A13",
"V. c #45970C",
"C. c #469E0D",
"Z. c #489D0C",
"A. c #418413",
"S. c #458A14",
"D. c #498E13",
"F. c #44851A",
"G. c #4D841C",
"H. c #408C18",
"J. c #548D1B",
"K. c #469214",
"L. c #4B9414",
"P. c #4E9A14",
"I. c #48911A",
"U. c #539614",
"Y. c #529D14",
"T. c #5C9D15",
"R. c #53931A",
"E. c #5B9A1C",
"W. c #5A931C",
"Q. c #639D1E",
"!. c #4FA20F",
"~. c #48A208",
"^. c #53A50D",
"/. c #5CB400",
"(. c #4EA010",
"). c #54A114",
"_. c #5CA515",
"`. c #5BAA14",
"'. c #57A815",
"]. c #5CB016",
"[. c #73BD0E",
"{. c #61A615",
"}. c #64AB15",
"|. c #6AAE15",
" X c #68A61A",
".X c #74AD1E",
"XX c #6DB216",
"oX c #6CB018",
"OX c #72B516",
"+X c #75B816",
"@X c #76B718",
"#X c #63B704",
"$X c #548423",
"%X c #6B8A2A",
"&X c #668728",
"*X c #619522",
"=X c #7D8C32",
"-X c #748830",
";X c #7F9430",
":X c #77AD20",
">X c #BC8354",
",X c #BE8658",
"<X c #C68956",
"1X c #CD8E59",
"2X c #C48857",
"3X c #D18F5A",
"4X c #D3915B",
"5X c #DA965E",
"6X c #E39C62",
"7X c None",
/* pixels */
"7X7X7X7X7X7X7X7X7X7X7X7X7X7X7X7X7X7X7X7XF.7X).`.P.Q S.A V Z n V A.n.7XI.H.'.P.7X7X7X7X7X7X7X7X7X7X7X7X7X7X7X7X7X7X7X7X7X7X7X7X7X",
"7X7X7X7X7X7X7X7X7X7X7X7X7X7X7X7X7X7X7Xn.m.S.).Y.XXP.A.I.|.{.U m.n.S.`.'.'.Y.'.L.r ` 7X7X7X7X7X7X7X7X7X7X7X7X7X7X7X7X7X7X7X7X7X7X",
"7X7X7X7X7X7X7X7X7X7X7X7X7X7X7X7X7X7X).Y.U.oXOX|.+XT.{.+XOX|.Y._.Y.).Y.Y.P.P.Y.m.n N ` 7X7X7X7X7X7X7X7X7X7X7X7X7X7X7X7X7X7X7X7X7X",
"7X7X7X7X7X7X7X7X7X7X7X7X7X7X7X7X7X7XY.(.|.OXOXOX+X X}.OXOXOXOX|.oX_.Y.Y.P.! ! L.Y.H t 7X7X7X7X7X7X7X7X7X7X7X7X7X7X7X7X7X7X7X7X7X",
"7X7X7X7X7X7X7X7X7X7X7X7X7X7X7X7X7XI.P.).{.OXOX|.OX|.OXOXOXXXOX+XOX_.P.).A.S.P.Y.Y.U N i 7X7X7X7X7X7X7X7X7X7X7X7X7X7X7X7X7X7X7X7X",
"7X7X7X7X7X7X7X7X7X7X7X7X7X7X7X7Xn T ).P.{.|.}._.}.}.OXOX}.Y._.{.{.`.P.).U.L.).Y.).T n y 7X7X7X7X7X7X7X7X7X7X7X7X7X7X7X7X7X7X7X7X",
"7X7X7X7X7X7X7X7X7X7X7X7X7X7X7X7Xn T Y.Y.Y.P.P.).OXOXOXOX}.OX}.OX}.).Y.).Y.'.K.2.G.U e i y 7X7X7X7X7X7X7X7X7X7X7X7X7X7X7X7X7X7X7X",
"7X7X7X7X7X7X7X7X7X7X7X7X7X7X7X! r L.OXXX}.XXXX_.|.OXOXOXOXOXOX+XOX_.P.P.1.W.B.) _ r p i m 7X7X7X7X7X7X7X7X7X7X7X7X7X7X7X7X7X7X7X",
"7X7X7X7X7X7X7X7X7X7X7X7X7X7X7XK.F M.|.OXOXOXOXOXOXOXOXOXOXOXOX|.OX_.Y.Y.J.@.[ @.L M V m U H T m.7X7X7X7X7X7X7X7X7X7X7X7X7X7X7X7X",
"7X7X7X7X7X7X7X7X7X7X7X7X).'.(.T.U._.^.OXOXOX|.XXXXOXOXOXOXXXOX_._.Y.Y.Y.P.} $.2.P H H I ! P.Y.).7X7X7X7X7X7X7X7X7X7X7X7X7X7X7X7X",
"7X7X7X7X7X7X7X7X7X7X7X7XP.Y.).OXOXOX}.`.OX_.{._.Y.|.OXOXOX|._.Y.Y.Y.Y.Y.V.{ +.v.I Q D.P.n.A.D.P.).P.7X7X7X7X7X7X7X7X7X7X7X7X7X7X",
"7X7X7X7X7X7X7X7X! I.7X6.n.K._.XXOXOXOX`.OXXXOX).P._.+XOXOX+X}.K.Y.).Y.Y.V.1.G.! ! ! S.).Y.S.A.S.Y.I.t ` ` 7X7X7X7X7X7X7X7X7X7X7X",
"7X7X7X7X7X7X7X! Y.Y.Z.-X8.Q Y.@XOXXXXXXXOXOXOX}.XX_.|.}._._.K.A.P.Y.L.K.).Y.Y.S.Y.! S.P.P.Y.L.E ! A N V Z i y 7X7X7X7X7X7X7X7X7X",
"7X7X7X7X7XF.n.! Y.`._.^.&X7.5./.=X.X+X+X@XOXOXOX+X|.L.n.! ! ! n.A.! n.D.Y.K.S.D.Y.P.L.F.Y.Y.L.Y A n V m m V i y 8 7X7X7X7X7X7X7X",
"7X7X7X7XY.P.L.S.@XOX+XXXC.P.q.5.q.XX+XOX}.{.{.}.OX! Q ! L.L.P.A.! ! ! L.Y.P.Y.Y.Y.Y.P.L.).).P.n.! A i y y y y 0 8 7X7X7X7X7X7X7X",
"7X7X7XY.].Y._.|.@X|.|._.`.Q.e.%X).}.{.{.P.Y.Y.Y.Y.L.D.L.).).P.R Q ! S.).Y.).Y.Y.Y.Y.Y.).Y.P.P.n.E A e i V V y y 0 7X7X7X7X7X7X7X",
"7X7X7X7X).Y.}.OXOX_.).}.[.;X=X#X X|.P.).}.Y.Y.Y.P.).).Y.Y.).R.O.K U ~ T.J.Y.Y.Y.Y.Y.).Y.~ H ! E y e y i V N i y 8 8 7X7X7X7X7X7X",
"7X7X7X7X'.Y._.|.OXXXOXOXOXOXOXOXOXOX{.Y.XXXXoXY.Y.).L.S.Y.P.Y.4.O.o.[ b.+.P.Y.Y.n.H S.J 5 y p e i V V V V V 0 y 0 8 7X7X7X7X7X7X",
"7X7Xn.! U.Y.}.OXOXOXOXOXOXOXOXOXoXOX}._.OXOXOX).Y.).S.! n.n.U n n ^ <.+.<.n.! A.~ C A m Z V y y i V Z Z V y y 0 8 0 7X7X7X7X7X7X",
"7X7X7X! x.U.OXOXT.OXOXOXOXOXOX{.{.OXXXOXOX|.OXY.P.Y.U.L.P.! L.M.n J +.+.v.! ! ! n.A n Z V i i e V V N V m i y y y 8 7X7X7X7X7X7X",
"7X7Xn.} 3.F.OXXX{.OX+XOXOXOXXX_.OXOXOXOX_.P.`.S.P.Y.).Y.Y.K.).m._ 2 #.M.A.P.L.Y.m.Y V i i i y y i i i i y i y y y 0 8 7X7X7X7X7X",
"7X7XI.c.8.$X+XOXY.}.OX.XOXOXOX}.|.OXOXOXT.K.A.A.Y.Y.Y.Y.).).Y.N.o.,.M.P.L.).Y.Y.A.E N e e t y y y y y i y y y y y 0 8 0 7X7X7X7X",
"7X7Xp B 1.y. X`.Z.E.y.*X`.OXOX|.Y.}.{.{.D.P I } S.v.Y.P.D.P.Y.).J.W.V.D.Y.Y.Y.Y.A.! I E I A i V y 0 0 y y e 0 y y 8 8 0 7X7X7X7X",
"7X7Xx ! V.%X9.0.%X7.3.v.OXOXOX|.S.L.! ! A r E v.b W Y.Y.S.S.Y.Y.Y.Y.L.L.Y.Y.Y.P.n.! n.A.n.A N Z i y 8 0 y y y 8 8 8 8 8 7X7X7X7X",
"7X7Xn.K.Y.).!.E.0.8.c.S.T.T.n.D.! ! ! G i t E ] b ! ).Y.L.n.S.L.Y.Y.).).P.).P.).P E A.! ! Q N V i y 0 0 y y 0 8 8 8 0 8 7X7X7X7X",
"7X7X! P.Y.L.Y.Y.~.t.%XV.W L.S.! ! A.! A N p - [ v.A.Y.Y.P.! L.Y.Y.Y.Y.Y.S.A.A.T Z H E Y Q A i m t y y 8 8 0 0 0 8 8 8 8 7X7X7X7X",
"7X7X! n.m.P.Y.Y.!.*Xw.| b.P.).P.[ E A V N ( c D E E S.! S.! P.L.S.Y.Y.).S.E F r m m N N m 4 y y l y 0 0 y y r y y 7X7X7X7X7X7X7X",
"7X7X7Xr n.F.! P.).Z.q.r.E.(.).K.b ( n M G k M m r U ! ! ! J E E A.E x K 0 6 e i V V V i i 8 8 9 + 5 8 0 e u f e 0 8 0 8 7X7X7X7X",
"7X7XZ m E ! S.Y.Y.Y.v.&XE.Y.).S.n b + l u _ M C i 0 H Z H t 6 6 u 8 3   i i V V V V i V y 8 8 4 + O 5 e y y  .g 3 8 0 8 7X7X7X7X",
"7X7Xm A ~ I Q U L.Y.S.S.!.Y.).S.A w / ( - - 9 5 0 8 6 i e i 0 9 4 u p G Z V V V Z Z Z N i y 0 8 8 % + d e w 9 + 3 9 0 8 7X7X7X7X",
"7X7XV N t n U K.Y.).L.D.Y.Y.Y.P.K.n.m.5 d * = o 4 e m t i t t r V ! ! n.Q m V Z N V V m i y 8 8 4 8 s % 8 a % g 4 8 8 0 7X7X7X7X",
"7X7X` V i n U Y.Y.Y.S.D.Y.Y.Y.Y.).'.S.G J n j ..I I ! A n Y I Q H ! n.n.E m Z Z V Z V i y y 8 8 8 8 4 + = - a 8 8 8 8 0 7X7X7X7X",
"7X7X0 y C A Y Y.Y.Y.P.Y.).Y.Y.Y.P.A.S.).).~ C H A.! A.E m Y ! A.! ! ! } J 6 i N V V V i y i y y 0 4 % $ s 8 5 8 8 8 8 8 8 7X7X7X",
"7X7X0 6 G ! ! ! Y.Y.Y.Y.Y.Y.Y.Y.P.S.P.).Y.K.Q ! ! ! n.P m ! n.! ! ! A.A.E y y i i i i y y y y 0 4 a = l r y y y 8 8 8 0 8 7X7X7X",
"7X7X7X7XJ ! ! n.A.A.L.P.L.'.P.L.).).).Y.U.! ! n.n.! ! Q Y ! n.! ! ! I F   8 V V V i i y y y y 0 y 0 g u i y y 8 8 0 8 8 7X7X7X7X",
"7X7X7Xq n.n.! E I m Q E I K.Y.S.K.P.Y.Y.S.Q n.n.! Q A A Q A.! n.G x 8   8 y Z V m Z V V V i y y y t e y y y y 0 8 8 8 7X7X7X7X7X",
"7X7X7X7Xl p G n Y I Q n.Y I A.A.! v.A.S.~ I } ! A.F n N A H A G p w 0 0 y y i t i V Z Z Z N V Z t y y 0 0 y y 0 0 8 7X7X7X7X7X7X",
"7X7X7X8 4 8 6 p ! A.! A.Q n.! A ! ! ! ! E H A Q F   0 V m e i e e l y y y i V V i V m V Z V Z m V y y y 8 8 8 8 8 8 7X7X7X7X7X7X",
"7X7X7X8 q 8 0 6 J [ ^ ! G 0 G M W [ n.} v.! C N 4 8 0 y y y y y e g q t y V V Z V V N i y 0 y y y y y y 8 0 8 8 8 7X7X7X7X7X7X7X",
"7X7X7X7X7X0 0 0 w z - d 9 3 0 c h z E E Q I y 0 8 0 0 y y y y y w h l e y t Z Z N i i y 0 y y i y 8 0 0 8 7X0 8 0 7X7X7X7X7X7X7X",
"7X7X7X7X7X8 8 8 y t j / - j + g f 8 4 e t e 8 8 0 0 y y 0 y y y t d ' q 0 y V m j y y i y y i y 0 8 8 8 8 7X7X7X7X7X7X7X7X7X7X7X",
"7X7X7X7X7X7X7X7X7X7X4 w e + ' n N V V i i y 0 y V i i i y 0 0 y q w O o w y y q + y y y 0 8 y y 8 8 0 8 8 7X7X7X7X7X7X7X7X7X7X7X",
"7X7X7X7X7X7X7X7X7X7X8 7X0 6 % V N Z V Z m y V i V Z i y y y 8 8 8 4 a # 9 0 5 + g 3 0 y 0 8 0 0 0 7X7X7X7X7X7X7X7X7X7X7X7X7X7X7X",
"7X7X7X7X7X7X7X7X7X7X7X7X8 6 v  .c n Z Z V i V Z N Z i y y e 8 8 4 9 4 s % 8 O % 4 4 8 0 8 8 0 8 8 7X7X7X7X7X7X7X7X7X7X7X7X7X7X7X",
"7X7X7X7X7X7X7X7X7X7X7X7X7X` S C G N Z Z V Z Z N V V i y 4 d * o % O 4 3 s % % 5 a 9 8 8 0 8 0 8 7X7X7X7X7X7X7X7X7X7X7X7X7X7X7X7X",
"7X7X7X7X7X7X7X7X7X7X7X7X7XZ V N ` i i i i V V V y 0 y e 0 8 % * O + 4 8 9 % # + % d 0 0 8 8 7X7X7X7X7X7X7X7X7X7X7X7X7X7X7X7X7X7X",
"7X7X7X7X7X7X7X7X7X7X7X7X7X7X7X7X7X7Xy y i y 0 8 4 8 8 8 g - * * 9 7 a 9 g = = : $ 5 9 7X7X7X7X7X7X7X7X7X7X7X7X7X7X7X7X7X7X7X7X7X",
"7X7X7X7X7X7X7X7X7X7X7X7X7X7X7X7X7X7X7X7Xy 0 y 9 o 8 4 a = = = * 4 8 a % + $ = : = 7X7X7X7X7X7X7X7X7X7X7X7X7X7X7X7X7X7X7X7X7X7X7X",
"7X7X7X7X7X7X7X7X7X7X7X7X7X7X7X7X7X7X7X7X7X7X7X* > g 8 4 - > = = - % + = = = = = = 7X7X7X7X7X7X7X7X7X7X7X7X7X7X7X7X7X7X7X7X7X7X7X",
"7X7X7X7X7X7X7X7X7X7X7X7X7X7X7X7X7X7X7X7X7X7X7X7X$...7  .*.: > *.> < = $ = , = = = 7X7X7X7X7X7X7X7X7X7X7X7X7X7X7X7X7X7X7X7X7X7X7X",
"7X7X7X7X7X7X7X7X7X7X7X7X7X7X7X7X7X7X7X7X7X7X7X7X> ;  .1 %.X.= X.$.$.< = : , = * : 7X7X7X7X7X7X7X7X7X7X7X7X7X7X7X7X7X7X7X7X7X7X7X",
"7X7X7X7X7X7X7X7X7X7X7X7X7X7X7X7X7X7X7X7X7X7X7X= = :.=.= $.$.= = $.&.X.$ = X.: = : 7X7X7X7X7X7X7X7X7X7X7X7X7X7X7X7X7X7X7X7X7X7X7X",
"7X7X7X7X7X7X7X7X7X7X7X7X7X7X7X7X7X7X7X7X7X$ : = > j.>.$.>.;.= 1 =.i.-.@ : %.$.= = = 7X7X7X7X7X7X7X7X7X7X7X7X7X7X7X7X7X7X7X7X7X7X",
"7X7X7X7X7X7X7X7X7X7X7X7X7X7X7X7X7X7X7X7X: : : @ i.l.i.%.i.s.X.%.u.i.-.. ; $.%.1 # = = = 7X7X7X7X7X7X7X7X7X7X7X7X7X7X7X7X7X7X7X7X",
"7X7X7X7X7X7X7X7X7X7X7X7X7X7X7X7X7X7X7X7X> @ X r.l.l.s.>.i.s.$.i.r.i.;.: : $.$.$.: $ = : : 7X7X7X7X7X7X7X7X7X7X7X7X7X7X7X7X7X7X7X",
"7X7X7X7X7X7X7X7X7X7X7X7X7X7X7X7X7X7X7X7X. -.h.2X>Xj.i.i.i.h.-.p.i.e.r.$.: $.$.%.X.= = = > 7X7X7X7X7X7X7X7X7X7X7X7X7X7X7X7X7X7X7X",
"7X7X7X7X7X7X7X7X7X7X7X7X7X7X7X7X7X7X7X7X<X4X4X4X4Xi.w.j.k.z.:.d.s.w.i.=.* X.%.$.%.> $ = = 7X7X7X7X7X7X7X7X7X7X7X7X7X7X7X7X7X7X7X",
"7X7X7X7X7X7X7X7X7X7X7X7X7X7X7X7X7X7X7X7X6X4X1X3X>X*.f.>X1X1X:.h.l.w.i.u.> : %.$.$.$., = 7X7X7X7X7X7X7X7X7X7X7X7X7X7X7X7X7X7X7X7X",
"7X7X7X7X7X7X7X7X7X7X7X7X7X7X7X7X7X7X7X7X1X1X4X1X:.:.<X3X1X1X-.a.l.j.h.j.w.. X.%.$.%.*.: 7X7X7X7X7X7X7X7X7X7X7X7X7X7X7X7X7X7X7X7X",
"7X7X7X7X7X7X7X7X7X7X7X7X7X7X7X7X7X7X7X7X7X1X4Xi.X.>X4X1X4Xz.@ w.l.l.j.l.l.*.. X.&.*.$.7X7X7X7X7X7X7X7X7X7X7X7X7X7X7X7X7X7X7X7X7X",
"7X7X7X7X7X7X7X7X7X7X7X7X7X7X7X7X7X7X7X7X7X7Xw.= h.4X1X1X1Xa.. > f.l.j.k.l.a.X.= , 7X7X7X7X7X7X7X7X7X7X7X7X7X7X7X7X7X7X7X7X7X7X7X",
"7X7X7X7X7X7X7X7X7X7X7X7X7X7X7X7X7X7X7X7X7X7X7X7X2X4X5X6X4X$.$ . ;.l.l.l.,Xi.7X7X7X7X7X7X7X7X7X7X7X7X7X7X7X7X7X7X7X7X7X7X7X7X7X7X",
"7X7X7X7X7X7X7X7X7X7X7X7X7X7X7X7X7X7X7X7X7X7X7X7X7X7X7X7Xg.1 : = $.l.l.l.7X7X7X7X7X7X7X7X7X7X7X7X7X7X7X7X7X7X7X7X7X7X7X7X7X7X7X7X",
"7X7X7X7X7X7X7X7X7X7X7X7X7X7X7X7X7X7X7X7X7X7X7X7X7X7X7X7X7X= 7X= 7X7X7X7X7X7X7X7X7X7X7X7X7X7X7X7X7X7X7X7X7X7X7X7X7X7X7X7X7X7X7X7X"
};
